<svg width="64" height="64" viewBox="0 0 64 64" fill="none" xmlns="http://www.w3.org/2000/svg">
<path d="M50.8397 23.5718C48.5933 15.2634 41.5827 9.43872 33.4739 9.43872C27.8195 9.43872 22.5523 12.2893 19.129 17.1302C18.1841 16.9128 17.2178 16.8024 16.2483 16.8013C8.64 16.8006 2.448 23.5456 2.448 31.8394C2.448 34.8134 3.24864 37.6941 4.75968 40.1709C5.11488 40.7507 5.71328 41.0982 6.35328 41.0982H19.104C19.1955 35.1686 24.0243 30.3885 29.9757 30.3885C35.927 30.3885 40.7552 35.1686 40.8474 41.0982H58.0922C58.6982 41.0982 59.2672 40.7878 59.6301 40.2566C60.8877 38.4148 61.5579 36.2353 61.5526 34.0051C61.552 27.8253 56.5504 22.8237 50.8397 23.5718Z" fill="#7E8299"/>
<path d="M36.7009 45.0112L30.3534 36.1402C30.2964 36.0611 30.2215 35.9967 30.1349 35.9522C30.0482 35.9077 29.9522 35.8844 29.8548 35.8842H29.8535C29.6551 35.8842 29.4708 35.9802 29.355 36.1427L23.0484 45.0112C22.9835 45.1033 22.9451 45.2114 22.9373 45.3237C22.9295 45.4361 22.9526 45.5485 23.0042 45.6486C23.1092 45.8534 23.3204 45.9802 23.5502 45.9802H26.5159V53.9475C26.5159 54.288 26.7911 54.5619 27.129 54.5619H32.6202C32.9594 54.5619 33.2334 54.288 33.2334 53.9475V45.9802H36.2017C36.3142 45.9799 36.4244 45.9488 36.5204 45.8901C36.6164 45.8314 36.6944 45.7475 36.746 45.6475C36.7975 45.5475 36.8205 45.4352 36.8126 45.323C36.8046 45.2108 36.766 45.1029 36.7009 45.0112Z" fill="#7E8299"/>
</svg>
